<svg width="1600" height="234" viewBox="0 0 1600 234" fill="none" xmlns="http://www.w3.org/2000/svg">
<g clip-path="url(#clip0_1_3)">
<path d="M12.898 194.057C-189.25 225.892 -443.063 294.019 -443.063 294.019L-381.807 1044.41C-381.807 1044.41 -188.724 1134.59 -27.0572 1127.95C240.574 1116.97 426.672 957.265 694.412 940.907C991.735 922.742 1138.09 1011.99 1435.42 994.305C1614.27 983.669 1888.57 932.092 1888.57 932.092L1806.81 0.462225C1806.81 0.462225 1723.52 42.3094 1660.84 59.7663C1518.29 99.4669 1420.77 57.5073 1267.48 72.8572C991.349 100.509 866.651 206.54 589.747 226.065C359.824 242.277 239.121 158.431 12.898 194.057Z" fill="#194484" fill-opacity="0.07"/>
</g>
<defs>
<clipPath id="clip0_1_3">
<rect width="1600" height="234" fill="white"/>
</clipPath>
</defs>
</svg>
