<svg width="1600" height="153" viewBox="0 0 1600 153" fill="none" xmlns="http://www.w3.org/2000/svg">
<g clip-path="url(#clip0_1_170)">
<mask id="mask0_1_170" style="mask-type:alpha" maskUnits="userSpaceOnUse" x="0" y="-117" width="1600" height="707">
<rect y="-117" width="1600" height="707" fill="#C4C4C4"/>
</mask>
<g mask="url(#mask0_1_170)">
<path d="M16.5635 127.786C-185.458 159.638 -439.111 227.811 -439.111 227.811L-377.856 978.849C-377.856 978.849 -184.888 1069.11 -23.3204 1062.48C244.145 1051.5 430.121 891.668 697.695 875.31C994.834 857.143 1141.1 946.471 1438.25 928.789C1616.99 918.154 1891.11 866.547 1891.11 866.547L1809.36 -65.8856C1809.36 -65.8856 1726.12 -24.0067 1663.48 -6.53803C1521.03 33.1895 1423.56 -8.81094 1270.37 6.54451C994.407 34.2059 869.791 140.322 593.059 159.849C363.278 176.064 242.645 92.1401 16.5635 127.786Z" fill="#194484" fill-opacity="0.07"/>
<path d="M291.177 79.7025C124.217 92.2432 -91.9425 188.069 -91.9425 188.069L-91.9426 744.729C-91.9426 744.729 59.5028 831.189 191.775 836.527C410.744 845.364 573.127 727.371 792.543 731.828C1036.2 736.778 1149.61 819.369 1393.24 824.714C1539.79 827.93 1766.9 804.073 1766.9 804.073L1766.9 -19C1766.9 -19 1696.19 69.6213 1643.92 79.7025C1525.04 102.629 1448.31 61.888 1322.29 64.2215C1095.27 68.425 986.532 146.688 759.434 144.207C570.865 142.146 478.02 65.6682 291.177 79.7025Z" fill="#194484"/>
</g>
</g>
<defs>
<clipPath id="clip0_1_170">
<rect width="1600" height="153" fill="white"/>
</clipPath>
</defs>
</svg>
