<svg width="1600" height="171" viewBox="0 0 1600 171" fill="none" xmlns="http://www.w3.org/2000/svg">
<g clip-path="url(#clip0_1_4)">
<mask id="mask0_1_4" style="mask-type:alpha" maskUnits="userSpaceOnUse" x="0" y="-464" width="1600" height="635">
<rect y="-464" width="1600" height="635" fill="#C4C4C4"/>
</mask>
<g mask="url(#mask0_1_4)">
<path d="M247.314 -392.025C80.7576 -412.12 -167.022 -490 -167.022 -490L-194 151.365C-194 151.365 239.231 48.5046 525.978 48.6542C741.808 48.7668 880.307 64.2802 1095.08 84.874C1343.61 108.705 1712.45 160.377 1712.45 160.377L1731.8 -299.611C1731.8 -299.611 1323.56 -394.363 1047.26 -417.575C732.383 -444.028 560.614 -354.226 247.314 -392.025Z" fill="#276ED8" fill-opacity="0.1"/>
<path d="M350 -349.274C209.184 -360.28 -1.99982 -417 -1.99982 -417V123.231C-1.99982 123.231 358.788 21.4207 600 11.4048C781.558 3.86591 898.61 12.0114 1080 21.7312C1289.9 32.9787 1602 63.3803 1602 63.3803V-324.074C1602 -324.074 1255.24 -389.305 1022 -399.05C756.192 -410.156 614.881 -328.573 350 -349.274Z" fill="#276ED8"/>
</g>
</g>
<defs>
<clipPath id="clip0_1_4">
<rect width="1600" height="171" fill="white"/>
</clipPath>
</defs>
</svg>
